<?xml version="1.0" ?><!DOCTYPE svg  PUBLIC '-//W3C//DTD SVG 1.1//EN'  'http://www.w3.org/Graphics/SVG/1.1/DTD/svg11.dtd'><svg enable-background="new 0 0 512 512" id="Layer_1" version="1.1" viewBox="0 0 512 512" xml:space="preserve" xmlns="http://www.w3.org/2000/svg" xmlns:xlink="http://www.w3.org/1999/xlink"><g><path d="M257.1,507.9C119.7,507.4,7.9,396.5,8.4,255.9C8.8,117.6,119.8,4.6,260.2,6.2   c134.6,1.5,246.3,111.2,245.4,252.6C504.8,396.8,394.6,507.3,257.1,507.9z M256.9,25.9C131.1,25.6,29.4,128.2,28.1,254.2   c-1.3,131.2,103.2,232.7,226.2,234c128.1,1.3,230.7-102.5,231.6-229.1C486.9,128.5,382.2,25.4,256.9,25.9z" fill="#BCBBBB"/><path d="M147.1,430c0-46-0.1-92-0.2-138c0-3.4,1.3-4.3,4.4-4.1c4.3,0.2,8.7,0.3,13,0c4.5-0.4,5.9,1,5.9,5.7   c-0.2,35.7-0.1,71.3-0.1,107c0,1.2,0.1,2.3,0,3.5c-0.2,2.7,1.1,4,3.8,3.9c1-0.1,2,0,3,0c55.7,0,111.3-0.1,167,0.1   c5.1,0,6.4-1.3,6.3-6.4c-0.2-36,0-72-0.2-108c0-4.5,1-6.3,5.8-5.9c4.3,0.4,8.7,0.4,13,0c4.3-0.4,5.2,1.3,5.2,5.4   c-0.1,44-0.1,88-0.1,132c0,1.6,0.5,3.4-0.8,4.8C297.8,430,222.4,430,147.1,430z" fill="#BCBBBB"/><path d="M197.5,305.1c31.1,3,61.5,5.9,91.8,8.7c12.3,1.2,24.5,2.3,36.8,3.2c3.2,0.2,4.4,1.1,3.9,4.5   c-0.9,7.3-1.5,14.6-2.1,21.9c-0.2,2.7-1.4,3.1-3.9,2.9c-24.9-2.4-49.7-4.6-74.6-6.8c-17.4-1.6-34.8-3.1-52.2-4.7   c-6.5-0.6-6.5-0.5-5.9-7c0.6-6.1,1.4-12.2,1.7-18.4C193.3,305.7,194.5,304.1,197.5,305.1z" fill="#F38127"/><path d="M208.9,244.1c3.9,1.1,8.3,2.2,12.6,3.4c37.5,10.1,75.1,20.3,112.7,30.3c4.4,1.2,5,2.7,3.7,6.8   c-2.1,6.3-3.6,12.8-5.2,19.2c-0.7,2.9-2.1,3.6-5,2.8c-32.1-8.7-64.2-17.3-96.3-26c-9.6-2.6-19.2-5.2-28.9-7.8   c-2.5-0.7-3.5-1.5-2.7-4.4c2.1-7,3.8-14.1,5.7-21.2C206.1,245.8,206,243.7,208.9,244.1z" fill="#F38127"/><path d="M392.7,223.1c-1.9,0.5-2.3-1.1-2.7-3.2c-6.9-39.8-13.9-79.6-20.8-119.5c-0.2-1.3-0.2-2.7-0.4-4   c-1.2-8.5-1.2-8.5,7.5-9.9c5.6-0.9,11.2-1.8,16.7-3c2.8-0.6,3.4,0.4,3.9,2.8c7.3,42.5,14.6,84.9,22,127.3c0.6,3.4,0.1,5.1-3.8,5.5   C407.8,220.2,400.6,221.7,392.7,223.1z" fill="#F38127"/><path d="M239.3,176.8c0.9,0.4,2,0.9,3,1.5c37.1,21.9,74.1,43.8,111.3,65.6c2.6,1.5,2.6,2.8,1.2,5   c-3.7,6.1-7.5,12.2-10.9,18.5c-1.8,3.3-3.5,3-6.2,1.4c-20.7-12.3-41.5-24.5-62.3-36.8c-16.2-9.5-32.3-19.2-48.6-28.6   c-2.9-1.7-3.3-2.9-1.5-5.7c3.9-6.2,7.5-12.6,11.2-18.8C237.2,177.8,237.7,176.6,239.3,176.8z" fill="#F38127"/><path d="M307.7,112.2c1.7,0.4,1.9,1.7,2.6,2.6c19.4,28.4,38.8,56.9,58.2,85.3c5.1,7.4,10,14.9,15.2,22.3   c1.5,2.1,1.5,3.2-0.8,4.7c-6.1,4-12.2,8.1-18.1,12.4c-2.6,1.9-4.1,1.6-5.9-1.1c-12.6-18.8-25.4-37.4-38.2-56.1   c-11.3-16.6-22.6-33.3-34.1-49.8c-2.3-3.3-1.9-4.9,1.4-7c5.9-3.7,11.6-7.8,17.4-11.7C306.3,113.2,307.1,112.6,307.7,112.2z" fill="#F38127"/><path d="M258.3,384.2c-21.1,0-42.3-0.1-63.4,0.1c-3.7,0-5.4-0.6-5.1-4.8c0.4-6.6,0.2-13.3,0-20   c-0.1-3.1,0.5-4.4,4.1-4.4c43.1,0.1,86.2,0.1,129.3,0c3.3,0,3.9,1.2,3.8,4.1c-0.2,7-0.2,14,0,21c0.1,3.4-1.1,4.2-4.3,4.1   C301.3,384.1,279.8,384.1,258.3,384.2C258.3,384.1,258.3,384.1,258.3,384.2z" fill="#F38026"/><path d="M147.1,430c75.3,0,150.7,0,226,0c-1.4,1.7-3.4,1-5.1,1c-71.8,0-143.5,0-215.3,0   C150.8,431,148.6,431.9,147.1,430z" fill="#DABEA8"/></g></svg>